HIERARCHY
ROOT joint_Root
{
	OFFSET 0.0 0.0 0.0
	CHANNELS 6 Xposition Yposition Zposition Zrotation Xrotation Yrotation 
	JOINT Hips
	{
		OFFSET 4.5925 91.4895 -427.239
		CHANNELS 6 Xposition Yposition Zposition Zrotation Xrotation Yrotation 
		JOINT Spine
		{
			OFFSET 15.7357 0.0 0.0
			CHANNELS 6 Xposition Yposition Zposition Zrotation Xrotation Yrotation 
			JOINT Chest
			{
				OFFSET 8.98455 -0.406207 0.0
				CHANNELS 6 Xposition Yposition Zposition Zrotation Xrotation Yrotation 
				JOINT Neck
				{
					OFFSET 16.3773 0.0 0.0
					CHANNELS 6 Xposition Yposition Zposition Zrotation Xrotation Yrotation 
					JOINT Head
					{
						OFFSET 6.45672 0.0 0.0
						CHANNELS 6 Xposition Yposition Zposition Zrotation Xrotation Yrotation 
						End Site
						{
							OFFSET 0.0 0.0 0.0
						}
					}
				}
				JOINT Shoulder_L
				{
					OFFSET 12.9942 -0.242716 4.98039
					CHANNELS 6 Xposition Yposition Zposition Zrotation Xrotation Yrotation 
					JOINT UpperArm_L
					{
						OFFSET 5.34809 0.0 0.0
						CHANNELS 6 Xposition Yposition Zposition Zrotation Xrotation Yrotation 
						JOINT LowerArm_L
						{
							OFFSET 24.3286 1.87007e-05 0.0
							CHANNELS 6 Xposition Yposition Zposition Zrotation Xrotation Yrotation 
							JOINT Hand_L
							{
								OFFSET 22.2916 0.0 0.0
								CHANNELS 6 Xposition Yposition Zposition Zrotation Xrotation Yrotation 
								End Site
								{
									OFFSET 0.0 0.0 0.0
								}
							}
						}
					}
				}
				JOINT Shoulder_R
				{
					OFFSET 12.9945 -0.242716 -4.98039
					CHANNELS 6 Xposition Yposition Zposition Zrotation Xrotation Yrotation 
					JOINT UpperArm_R
					{
						OFFSET -5.34813 0.0 0.0
						CHANNELS 6 Xposition Yposition Zposition Zrotation Xrotation Yrotation 
						JOINT LowerArm_R
						{
							OFFSET -24.3289 0.000322201 0.0
							CHANNELS 6 Xposition Yposition Zposition Zrotation Xrotation Yrotation 
							JOINT Hand_R
							{
								OFFSET -22.2915 -0.000108084 0.0
								CHANNELS 6 Xposition Yposition Zposition Zrotation Xrotation Yrotation 
								End Site
								{
									OFFSET 0.0 0.0 0.0
								}
							}
						}
					}
				}
			}
		}
		JOINT UpperLeg_L
		{
			OFFSET -2.19248 -6.46944 0.0
			CHANNELS 6 Xposition Yposition Zposition Zrotation Xrotation Yrotation 
			JOINT LowerLeg_L
			{
				OFFSET 39.0811 0.0 -1.23785e-05
				CHANNELS 6 Xposition Yposition Zposition Zrotation Xrotation Yrotation 
				JOINT Foot_L
				{
					OFFSET 40.9854 0.0 -1.26872e-05
					CHANNELS 6 Xposition Yposition Zposition Zrotation Xrotation Yrotation 
					JOINT Toes_L
					{
						OFFSET 11.7543 0.0 0.0
						CHANNELS 6 Xposition Yposition Zposition Zrotation Xrotation Yrotation 
						End Site
						{
							OFFSET 0.0 0.0 0.0
						}
					}
				}
			}
		}
		JOINT UpperLeg_R
		{
			OFFSET -2.19251 6.46944 0.0
			CHANNELS 6 Xposition Yposition Zposition Zrotation Xrotation Yrotation 
			JOINT LowerLeg_R
			{
				OFFSET -39.0811 -0.00228153 -0.0401928
				CHANNELS 6 Xposition Yposition Zposition Zrotation Xrotation Yrotation 
				JOINT Foot_R
				{
					OFFSET -40.9854 0.0 0.0
					CHANNELS 6 Xposition Yposition Zposition Zrotation Xrotation Yrotation 
					JOINT Toes_R
					{
						OFFSET -11.7543 0.0 0.0
						CHANNELS 6 Xposition Yposition Zposition Zrotation Xrotation Yrotation 
						End Site
						{
							OFFSET 0.0 0.0 0.0
						}
					}
				}
			}
		}
	}
}
MOTION
Frames:	7
Frame Time:	0.0333333
0.000000 0.000000 0.000000 0.000000 0.000000 -0.000000 -5.598510 85.993300 -59.207000 88.520700 2.184030 -1.028240 15.735700 0.000005 -0.000001 52.199700 83.602500 -50.757500 8.984550 -0.406207 -0.000000 2.467070 -7.902790 3.055470 16.377300 -0.000001 -0.000001 0.223612 -4.410150 4.095740 6.456720 -0.000001 -0.000000 -7.815020 0.176169 7.729880 12.994200 -0.242716 4.980390 -89.693700 -0.874191 -70.712700 5.348090 -0.000007 -0.000001 -54.032100 37.168300 -17.426400 24.328600 0.000019 0.000005 21.803400 -6.610390 -106.053000 22.291600 -0.000001 0.000005 6.022370 5.441600 -4.333050 12.994500 -0.242716 -4.980390 89.332900 1.887310 -70.508800 -5.348130 -0.000001 -0.000004 -69.624000 40.339400 15.537800 -24.328900 0.000322 -0.000009 -1.962140 0.904451 -114.735000 -22.291500 -0.000108 -0.000004 11.910800 5.557030 -9.037120 -2.192480 -6.469440 -0.000000 -171.278000 -9.823730 0.778675 39.081100 -0.000007 -0.000012 0.455081 0.055863 96.996700 40.985400 -0.000006 -0.000013 2.769170 -9.070610 -34.468900 11.754300 -0.000000 0.000003 -0.005192 -0.063319 -19.153200 -2.192510 6.469440 -0.000001 -173.885000 6.988580 149.035000 -39.081100 -0.002282 -0.040193 -0.361016 0.306146 49.955100 -40.985400 0.000008 0.000006 6.691850 -0.785599 -70.938400 -11.754300 -0.000006 -0.000006 -0.008725 -0.093852 -20.395600
0.000000 0.000000 0.000000 0.000000 0.000000 -0.000000 -5.927460 83.483100 -51.254000 85.680000 0.325541 -0.008965 15.735700 0.000005 -0.000001 66.509400 83.448000 -63.855500 8.984550 -0.406207 -0.000000 4.395520 -5.292690 5.508240 16.377300 -0.000001 -0.000001 -2.113780 -3.630950 2.981900 6.456720 -0.000001 -0.000000 -7.451720 -1.189240 8.619710 12.994200 -0.242716 4.980390 -90.813600 2.342030 -70.837800 5.348090 -0.000007 -0.000001 -59.383900 30.356700 -7.058120 24.328600 0.000019 0.000005 22.369700 -3.041370 -97.353300 22.291600 -0.000001 0.000005 12.275200 5.503680 -6.693870 12.994500 -0.242716 -4.980390 87.365000 8.563790 -72.822900 -5.348130 -0.000001 -0.000004 -56.714400 38.606900 0.235633 -24.328900 0.000322 -0.000009 -4.669530 2.396160 -117.110000 -22.291500 -0.000108 -0.000004 13.958200 5.581250 -10.283900 -2.192480 -6.469440 -0.000000 -170.694000 -8.193000 -9.779200 39.081100 -0.000007 -0.000012 0.210871 0.096178 114.514000 40.985400 -0.000006 -0.000013 4.642600 -4.154440 -33.111500 11.754300 -0.000000 0.000003 -0.004883 -0.060333 -19.031500 -2.192510 6.469440 -0.000001 -170.715000 2.723450 152.657000 -39.081100 -0.002282 -0.040193 -0.184453 0.120442 57.308600 -40.985400 0.000008 0.000006 8.158930 -5.363870 -80.314600 -11.754300 -0.000006 -0.000006 -0.004072 -0.052183 -18.695800
0.000000 0.000000 0.000000 0.000000 0.000000 -0.000000 -5.685470 82.320700 -43.617600 85.577700 0.748050 0.522934 15.735700 0.000005 -0.000001 71.917000 83.299700 -68.796900 8.984550 -0.406207 -0.000000 5.106530 -4.223210 6.423990 16.377300 -0.000001 -0.000001 -1.933900 -3.385630 2.561410 6.456720 -0.000001 -0.000000 -8.549980 -1.452650 6.248620 12.994200 -0.242716 4.980390 -90.485500 1.355270 -70.286200 5.348090 -0.000007 -0.000001 -67.814900 23.513100 2.791230 24.328600 0.000019 0.000005 30.754200 0.119131 -89.798200 22.291600 -0.000001 0.000005 12.183700 5.485680 -6.054080 12.994500 -0.242716 -4.980390 86.802700 10.625200 -73.146200 -5.348130 -0.000001 -0.000004 -48.470800 36.933900 -18.759600 -24.328900 0.000322 -0.000009 -4.950060 2.255280 -114.434000 -22.291500 -0.000108 -0.000004 16.394500 5.575580 -9.973450 -2.192480 -6.469440 -0.000000 -173.494000 -4.105000 -23.466100 39.081100 -0.000007 -0.000012 -0.226607 -0.163700 125.848000 40.985400 -0.000006 -0.000013 5.346920 2.120650 -32.953800 11.754300 -0.000000 0.000003 -0.003770 -0.049033 -18.571200 -2.192510 6.469440 -0.000001 -171.452000 7.643030 158.859000 -39.081100 -0.002282 -0.040193 0.116477 -0.068961 58.665700 -40.985400 0.000008 0.000006 10.667100 -3.200390 -87.913500 -11.754300 -0.000006 -0.000006 -0.002423 -0.033886 -17.951100
0.000000 0.000000 0.000000 0.000000 0.000000 -0.000000 -4.795530 82.624800 -35.207700 87.402800 -0.819175 -0.027121 15.735700 0.000005 -0.000001 86.901600 83.787900 -84.309100 8.984550 -0.406207 -0.000000 4.662400 -0.740389 5.209430 16.377300 -0.000001 -0.000001 -2.800780 -3.512710 2.839440 6.456720 -0.000001 -0.000000 -8.318490 -3.203040 5.336880 12.994200 -0.242716 4.980390 -90.255800 0.663987 -68.919800 5.348090 -0.000007 -0.000001 -69.026200 23.769600 10.207400 24.328600 0.000019 0.000005 29.879300 -2.455850 -94.271600 22.291600 -0.000001 0.000005 6.967540 5.521630 -7.441050 12.994500 -0.242716 -4.980390 87.701200 8.871130 -75.411200 -5.348130 -0.000001 -0.000004 -51.611900 33.459500 -26.387200 -24.328900 0.000322 -0.000009 -1.802690 0.916788 -116.950000 -22.291500 -0.000108 -0.000004 16.106100 5.586530 -10.568600 -2.192480 -6.469440 -0.000000 -177.989000 -3.646540 -33.305400 39.081100 -0.000007 -0.000012 -0.369019 -0.283018 127.488000 40.985400 -0.000006 -0.000013 6.466500 0.846048 -39.247400 11.754300 -0.000000 0.000003 -0.003475 -0.045868 -18.442400 -2.192510 6.469440 -0.000001 -175.435000 8.400800 167.223000 -39.081100 -0.002282 -0.040193 0.173352 -0.121912 54.374200 -40.985400 0.000008 0.000006 10.732400 -0.816829 -91.263200 -11.754300 -0.000006 -0.000006 -0.002564 -0.035571 -18.019600
0.000000 0.000000 0.000000 0.000000 0.000000 -0.000000 -3.665130 84.497000 -26.063600 90.431000 -3.651000 -1.689500 15.735700 0.000005 -0.000001 113.223000 84.164600 -112.275000 8.984550 -0.406207 -0.000000 2.930440 4.557440 1.779540 16.377300 -0.000001 -0.000001 -2.756390 -4.182570 3.449440 6.456720 -0.000001 -0.000000 -8.765400 -6.505340 6.946380 12.994200 -0.242716 4.980390 -89.501600 -1.209460 -67.607400 5.348090 -0.000007 -0.000001 -67.423300 30.511100 14.639200 24.328600 0.000019 0.000005 21.051400 -4.103140 -100.535000 22.291600 -0.000001 0.000005 8.283720 5.502290 -6.625920 12.994500 -0.242716 -4.980390 88.548800 6.596110 -77.564700 -5.348130 -0.000001 -0.000004 -57.726900 32.285900 -25.991200 -24.328900 0.000322 -0.000009 -2.966500 1.806600 -121.308000 -22.291500 -0.000108 -0.000004 18.247400 5.591160 -10.820600 -2.192480 -6.469440 -0.000000 176.257000 -4.124390 -39.260300 39.081100 -0.000007 -0.000012 -0.303081 -0.175206 120.034000 40.985400 -0.000006 -0.000013 7.727080 -4.510210 -47.659600 11.754300 -0.000000 0.000003 -0.003987 -0.051307 -18.663800 -2.192510 6.469440 -0.000001 178.968000 7.220370 176.025000 -39.081100 -0.002282 -0.040193 0.127228 -0.123983 44.995700 -40.985400 0.000008 0.000006 10.843000 2.635060 -86.259900 -11.754300 -0.000006 -0.000006 -1.459520 -1.592790 -23.180500
0.000000 0.000000 0.000000 0.000000 0.000000 -0.000000 -2.516480 87.285900 -16.823700 92.366800 -6.231020 -4.963350 15.735700 0.000005 -0.000001 135.088000 84.033900 -135.584000 8.984550 -0.406207 -0.000000 0.707526 8.477920 -1.044250 16.377300 -0.000001 -0.000001 -3.680910 -3.888810 3.361580 6.456720 -0.000001 -0.000000 -9.217280 -8.215470 6.975500 12.994200 -0.242716 4.980390 -88.715800 -2.893110 -66.052800 5.348090 -0.000007 -0.000001 -66.204900 34.622000 18.194500 24.328600 0.000019 0.000005 18.733500 -5.423780 -105.574000 22.291600 -0.000001 0.000005 6.375480 5.507980 -6.857290 12.994500 -0.242716 -4.980390 89.211300 4.252290 -79.484000 -5.348130 -0.000001 -0.000004 -60.911900 34.249900 -25.601600 -24.328900 0.000322 -0.000009 -6.333180 4.037940 -122.395000 -22.291500 -0.000108 -0.000004 21.053200 5.607430 -11.796900 -2.192480 -6.469440 -0.000000 173.088000 -3.059360 -44.155500 39.081100 -0.000007 -0.000012 -0.129345 -0.037939 106.353000 40.985400 -0.000006 -0.000013 7.177880 -8.366540 -54.056400 11.754300 -0.000000 0.000003 -0.004513 -0.056679 -18.882600 -2.192510 6.469440 -0.000001 174.076000 8.227150 -179.922000 -39.081100 -0.002282 -0.040193 0.105462 -0.129397 38.296500 -40.985400 0.000008 0.000006 11.552300 8.373520 -73.086700 -11.754300 -0.000006 -0.000006 -0.106740 -0.460978 -35.847000
0.000000 0.000000 0.000000 0.000000 0.000000 -0.000000 -1.707590 90.290400 -7.643190 92.685800 -6.986540 -6.622640 15.735700 0.000005 -0.000001 142.804000 83.697800 -144.014000 8.984550 -0.406207 -0.000000 -0.028143 10.120200 -2.420110 16.377300 -0.000001 -0.000001 -4.892650 -3.751810 2.682860 6.456720 -0.000001 -0.000000 -10.690500 -8.421150 5.531140 12.994200 -0.242716 4.980390 -87.989900 -4.308680 -64.960600 5.348090 -0.000007 -0.000001 -66.666800 35.889400 21.408600 24.328600 0.000019 0.000005 19.535000 -6.529540 -107.771000 22.291600 -0.000001 0.000005 5.163380 5.496110 -6.374530 12.994500 -0.242716 -4.980390 89.544900 2.628460 -80.173800 -5.348130 -0.000001 -0.000004 -61.660300 37.128500 -25.813500 -24.328900 0.000322 -0.000009 -4.822030 2.798100 -120.051000 -22.291500 -0.000108 -0.000004 19.380900 5.591900 -10.858700 -2.192480 -6.469440 -0.000000 173.405000 -0.981763 -44.410200 39.081100 -0.000007 -0.000012 0.008446 -0.000302 87.891500 40.985400 -0.000006 -0.000013 6.886540 -11.122200 -59.770300 11.754300 -0.000000 0.000003 -0.003796 -0.049313 -18.582600 -2.192510 6.469440 -0.000001 170.307000 13.064100 -176.386000 -39.081100 -0.002282 -0.040193 0.114257 -0.170643 33.034400 -40.985400 0.000008 0.000006 11.210800 16.790500 -54.402500 -11.754300 -0.000006 -0.000006 -0.226502 -0.687412 -46.246500
